<mxfile host="Electron" modified="2023-04-23T18:15:59.325Z" agent="Mozilla/5.0 (Windows NT 10.0; Win64; x64) AppleWebKit/537.36 (KHTML, like Gecko) draw.io/21.1.2 Chrome/106.0.5249.199 Electron/21.4.3 Safari/537.36" etag="BxKO4dkCaifBh5UuBZ_z" version="21.1.2" type="device">
  <diagram name="Seite-1" id="bi-CwLxBdhhgdUqaIR29">
    <mxGraphModel dx="1231" dy="707" grid="1" gridSize="10" guides="1" tooltips="1" connect="1" arrows="1" fold="1" page="1" pageScale="1" pageWidth="1169" pageHeight="827" math="0" shadow="0">
      <root>
        <mxCell id="0" />
        <mxCell id="1" parent="0" />
        <mxCell id="vDldoN2Uw_cuYA8tPiG8-1" value="" style="rounded=0;whiteSpace=wrap;html=1;" vertex="1" parent="1">
          <mxGeometry x="180" y="220" width="460" height="340" as="geometry" />
        </mxCell>
        <mxCell id="vDldoN2Uw_cuYA8tPiG8-2" value="" style="triangle;whiteSpace=wrap;html=1;rotation=-90;" vertex="1" parent="1">
          <mxGeometry x="345" y="-75" width="130" height="460" as="geometry" />
        </mxCell>
        <mxCell id="vDldoN2Uw_cuYA8tPiG8-3" value="" style="rounded=0;whiteSpace=wrap;html=1;rotation=-30;fillColor=#f5f5f5;strokeColor=#666666;fontColor=#333333;" vertex="1" parent="1">
          <mxGeometry x="261" y="113" width="120" height="20" as="geometry" />
        </mxCell>
        <mxCell id="vDldoN2Uw_cuYA8tPiG8-4" value="Wasser&lt;br&gt;Puffer" style="shape=cylinder3;whiteSpace=wrap;html=1;boundedLbl=1;backgroundOutline=1;size=15;fillColor=#f5f5f5;strokeColor=#666666;fontColor=#333333;" vertex="1" parent="1">
          <mxGeometry x="210" y="443" width="60" height="80" as="geometry" />
        </mxCell>
        <mxCell id="vDldoN2Uw_cuYA8tPiG8-5" value="&lt;b&gt;&lt;font color=&quot;#ff8000&quot;&gt;Wärmepumpe&lt;/font&gt;&lt;/b&gt;" style="shape=mxgraph.pid.pumps.centrifugal_pump_1;html=1;pointerEvents=1;align=center;verticalLabelPosition=bottom;verticalAlign=top;dashed=0;fillColor=#fa6800;strokeColor=#C73500;fontColor=#000000;" vertex="1" parent="1">
          <mxGeometry x="475" y="474" width="50" height="50" as="geometry" />
        </mxCell>
        <mxCell id="vDldoN2Uw_cuYA8tPiG8-6" value="Ventilation" style="verticalLabelPosition=bottom;html=1;verticalAlign=top;align=center;shape=mxgraph.floorplan.spiral_stairs;fillColor=#f5f5f5;fontColor=#333333;strokeColor=#666666;" vertex="1" parent="1">
          <mxGeometry x="560" y="476" width="50" height="49" as="geometry" />
        </mxCell>
        <mxCell id="vDldoN2Uw_cuYA8tPiG8-8" value="" style="shape=mxgraph.signs.nature.sun_2;html=1;pointerEvents=1;fillColor=#000000;strokeColor=none;verticalLabelPosition=bottom;verticalAlign=top;align=center;sketch=0;" vertex="1" parent="1">
          <mxGeometry x="51" y="20" width="99" height="99" as="geometry" />
        </mxCell>
        <mxCell id="vDldoN2Uw_cuYA8tPiG8-16" value="" style="endArrow=none;dashed=1;html=1;rounded=1;entryX=0.86;entryY=0.5;entryDx=0;entryDy=0;entryPerimeter=0;" edge="1" parent="1" target="vDldoN2Uw_cuYA8tPiG8-5">
          <mxGeometry width="50" height="50" relative="1" as="geometry">
            <mxPoint x="560" y="500" as="sourcePoint" />
            <mxPoint x="521.4000000000001" y="482.5" as="targetPoint" />
            <Array as="points" />
          </mxGeometry>
        </mxCell>
        <mxCell id="vDldoN2Uw_cuYA8tPiG8-20" value="" style="endArrow=none;dashed=1;html=1;rounded=1;entryX=0;entryY=0.5;entryDx=0;entryDy=0;exitX=0.5;exitY=0;exitDx=0;exitDy=0;exitPerimeter=0;endFill=0;startArrow=classic;startFill=1;" edge="1" parent="1" source="vDldoN2Uw_cuYA8tPiG8-4" target="vDldoN2Uw_cuYA8tPiG8-3">
          <mxGeometry width="50" height="50" relative="1" as="geometry">
            <mxPoint x="550" y="460" as="sourcePoint" />
            <mxPoint x="600" y="410" as="targetPoint" />
            <Array as="points">
              <mxPoint x="240" y="170" />
            </Array>
          </mxGeometry>
        </mxCell>
        <mxCell id="vDldoN2Uw_cuYA8tPiG8-21" value="Heizung" style="verticalLabelPosition=bottom;outlineConnect=0;align=center;dashed=0;html=1;verticalAlign=top;shape=mxgraph.pid.misc.flexible_pipe;pointerEvents=1;" vertex="1" parent="1">
          <mxGeometry x="480" y="279" width="80" height="16" as="geometry" />
        </mxCell>
        <mxCell id="vDldoN2Uw_cuYA8tPiG8-22" value="Warmwasser" style="shape=mxgraph.signs.people.shower_2;html=1;pointerEvents=1;fillColor=#000000;strokeColor=none;verticalLabelPosition=bottom;verticalAlign=top;align=center;" vertex="1" parent="1">
          <mxGeometry x="328" y="236" width="80" height="70" as="geometry" />
        </mxCell>
        <mxCell id="vDldoN2Uw_cuYA8tPiG8-23" value="" style="endArrow=classic;dashed=1;html=1;rounded=1;entryX=0;entryY=0.5;entryDx=0;entryDy=0;entryPerimeter=0;endFill=1;exitX=1;exitY=0;exitDx=0;exitDy=52.5;exitPerimeter=0;" edge="1" parent="1" source="vDldoN2Uw_cuYA8tPiG8-4" target="vDldoN2Uw_cuYA8tPiG8-21">
          <mxGeometry width="50" height="50" relative="1" as="geometry">
            <mxPoint x="430" y="478" as="sourcePoint" />
            <mxPoint x="744" y="408" as="targetPoint" />
            <Array as="points">
              <mxPoint x="420" y="496" />
              <mxPoint x="420" y="400" />
              <mxPoint x="420" y="287" />
            </Array>
          </mxGeometry>
        </mxCell>
        <mxCell id="vDldoN2Uw_cuYA8tPiG8-24" value="" style="endArrow=classic;dashed=1;html=1;rounded=1;exitX=0.993;exitY=0.44;exitDx=0;exitDy=0;exitPerimeter=0;entryX=0.033;entryY=0.756;entryDx=0;entryDy=0;entryPerimeter=0;endFill=1;" edge="1" parent="1" source="vDldoN2Uw_cuYA8tPiG8-4" target="vDldoN2Uw_cuYA8tPiG8-22">
          <mxGeometry width="50" height="50" relative="1" as="geometry">
            <mxPoint x="150" y="495.5" as="sourcePoint" />
            <mxPoint x="438" y="410" as="targetPoint" />
            <Array as="points">
              <mxPoint x="300" y="478" />
              <mxPoint x="300" y="289" />
            </Array>
          </mxGeometry>
        </mxCell>
        <mxCell id="vDldoN2Uw_cuYA8tPiG8-30" value="" style="endArrow=classic;dashed=1;html=1;rounded=1;entryX=0.5;entryY=1;entryDx=0;entryDy=0;entryPerimeter=0;exitX=0.01;exitY=0.5;exitDx=0;exitDy=0;exitPerimeter=0;endFill=1;" edge="1" parent="1">
          <mxGeometry width="50" height="50" relative="1" as="geometry">
            <mxPoint x="475.5000000000002" y="499" as="sourcePoint" />
            <mxPoint x="240" y="523" as="targetPoint" />
            <Array as="points">
              <mxPoint x="440" y="500" />
              <mxPoint x="440" y="540" />
              <mxPoint x="240" y="540" />
            </Array>
          </mxGeometry>
        </mxCell>
        <mxCell id="vDldoN2Uw_cuYA8tPiG8-34" value="" style="group;" vertex="1" connectable="0" parent="1">
          <mxGeometry x="660" y="476" width="230" height="50" as="geometry" />
        </mxCell>
        <mxCell id="vDldoN2Uw_cuYA8tPiG8-13" value="M" style="verticalLabelPosition=middle;shadow=0;dashed=0;align=center;html=1;verticalAlign=middle;strokeWidth=1;shape=ellipse;aspect=fixed;fontSize=35;fillColor=#fa6800;strokeColor=#C73500;fontColor=#000000;" vertex="1" parent="vDldoN2Uw_cuYA8tPiG8-34">
          <mxGeometry width="50" height="50" as="geometry" />
        </mxCell>
        <mxCell id="vDldoN2Uw_cuYA8tPiG8-14" value="&lt;b style=&quot;&quot;&gt;&lt;font color=&quot;#ff8000&quot;&gt;Wärmepumpe Umwälzpumpe&lt;/font&gt;&lt;/b&gt;" style="text;html=1;strokeColor=none;fillColor=none;align=center;verticalAlign=middle;whiteSpace=wrap;rounded=0;" vertex="1" parent="vDldoN2Uw_cuYA8tPiG8-34">
          <mxGeometry x="60" y="10" width="170" height="30" as="geometry" />
        </mxCell>
        <mxCell id="vDldoN2Uw_cuYA8tPiG8-35" value="" style="group" vertex="1" connectable="0" parent="1">
          <mxGeometry x="660" y="103" width="190" height="50" as="geometry" />
        </mxCell>
        <mxCell id="vDldoN2Uw_cuYA8tPiG8-9" value="M" style="verticalLabelPosition=middle;shadow=0;dashed=0;align=center;html=1;verticalAlign=middle;strokeWidth=1;shape=ellipse;aspect=fixed;fontSize=35;fillColor=#fa6800;strokeColor=#C73500;fontColor=#000000;" vertex="1" parent="vDldoN2Uw_cuYA8tPiG8-35">
          <mxGeometry width="50" height="50" as="geometry" />
        </mxCell>
        <mxCell id="vDldoN2Uw_cuYA8tPiG8-12" value="&lt;b style=&quot;&quot;&gt;&lt;font color=&quot;#ff8000&quot;&gt;Solar Umwälzpumpe&lt;/font&gt;&lt;/b&gt;" style="text;html=1;strokeColor=none;fillColor=none;align=center;verticalAlign=middle;whiteSpace=wrap;rounded=0;" vertex="1" parent="vDldoN2Uw_cuYA8tPiG8-35">
          <mxGeometry x="50" y="10" width="140" height="30" as="geometry" />
        </mxCell>
        <mxCell id="vDldoN2Uw_cuYA8tPiG8-36" value="" style="group" vertex="1" connectable="0" parent="1">
          <mxGeometry x="660" y="259" width="200" height="50" as="geometry" />
        </mxCell>
        <mxCell id="vDldoN2Uw_cuYA8tPiG8-10" value="M" style="verticalLabelPosition=middle;shadow=0;dashed=0;align=center;html=1;verticalAlign=middle;strokeWidth=1;shape=ellipse;aspect=fixed;fontSize=35;fillColor=#fa6800;strokeColor=#C73500;fontColor=#000000;" vertex="1" parent="vDldoN2Uw_cuYA8tPiG8-36">
          <mxGeometry width="50" height="50" as="geometry" />
        </mxCell>
        <mxCell id="vDldoN2Uw_cuYA8tPiG8-11" value="&lt;b&gt;&lt;font color=&quot;#ff8000&quot;&gt;Heizung Umwälzpumpe&lt;/font&gt;&lt;/b&gt;" style="text;html=1;strokeColor=none;fillColor=none;align=center;verticalAlign=middle;whiteSpace=wrap;rounded=0;" vertex="1" parent="vDldoN2Uw_cuYA8tPiG8-36">
          <mxGeometry x="50" y="10" width="150" height="30" as="geometry" />
        </mxCell>
        <mxCell id="vDldoN2Uw_cuYA8tPiG8-37" value="" style="group" vertex="1" connectable="0" parent="1">
          <mxGeometry x="460" y="337" width="160" height="123" as="geometry" />
        </mxCell>
        <mxCell id="vDldoN2Uw_cuYA8tPiG8-17" value="" style="verticalLabelPosition=bottom;align=center;html=1;verticalAlign=top;pointerEvents=1;dashed=0;shape=mxgraph.pid2valves.valve;valveType=gate;actuator=motor;fillColor=#fa6800;strokeColor=#C73500;fontColor=#000000;" vertex="1" parent="vDldoN2Uw_cuYA8tPiG8-37">
          <mxGeometry x="27.5" width="60" height="60" as="geometry" />
        </mxCell>
        <mxCell id="vDldoN2Uw_cuYA8tPiG8-18" value="&lt;b&gt;&lt;font color=&quot;#ff8000&quot;&gt;Mixer Heizung (+/-)&lt;/font&gt;&lt;/b&gt;" style="text;html=1;strokeColor=none;fillColor=none;align=center;verticalAlign=middle;whiteSpace=wrap;rounded=0;" vertex="1" parent="vDldoN2Uw_cuYA8tPiG8-37">
          <mxGeometry y="60" width="115" height="30" as="geometry" />
        </mxCell>
        <mxCell id="vDldoN2Uw_cuYA8tPiG8-52" value="" style="sketch=0;outlineConnect=0;fillColor=#0050ef;strokeColor=#001DBC;dashed=0;verticalLabelPosition=bottom;verticalAlign=top;align=center;html=1;fontSize=12;fontStyle=0;aspect=fixed;pointerEvents=1;shape=mxgraph.aws4.iot_thing_temperature_sensor;fontColor=#ffffff;" vertex="1" parent="vDldoN2Uw_cuYA8tPiG8-37">
          <mxGeometry x="-22" y="11" width="30" height="30" as="geometry" />
        </mxCell>
        <mxCell id="vDldoN2Uw_cuYA8tPiG8-70" value="&lt;font color=&quot;#3333ff&quot;&gt;Converter&lt;br&gt;(Vereisung)&lt;br&gt;&lt;/font&gt;" style="text;html=1;strokeColor=none;fillColor=none;align=center;verticalAlign=middle;whiteSpace=wrap;rounded=0;" vertex="1" parent="vDldoN2Uw_cuYA8tPiG8-37">
          <mxGeometry x="66" y="96" width="60" height="30" as="geometry" />
        </mxCell>
        <mxCell id="vDldoN2Uw_cuYA8tPiG8-38" value="" style="endArrow=none;dashed=1;html=1;rounded=0;exitX=-0.035;exitY=0.752;exitDx=0;exitDy=0;exitPerimeter=0;" edge="1" parent="1" source="vDldoN2Uw_cuYA8tPiG8-17">
          <mxGeometry width="50" height="50" relative="1" as="geometry">
            <mxPoint x="520" y="340" as="sourcePoint" />
            <mxPoint x="420" y="382" as="targetPoint" />
          </mxGeometry>
        </mxCell>
        <mxCell id="vDldoN2Uw_cuYA8tPiG8-41" value="" style="group" vertex="1" connectable="0" parent="1">
          <mxGeometry x="469" y="590" width="140" height="120" as="geometry" />
        </mxCell>
        <mxCell id="vDldoN2Uw_cuYA8tPiG8-39" value="" style="html=1;shadow=0;dashed=0;align=center;verticalAlign=middle;shape=mxgraph.arrows2.triadArrow;dy=10;dx=20;arrowHead=40;fillColor=#fa6800;fontColor=#000000;strokeColor=#C73500;" vertex="1" parent="vDldoN2Uw_cuYA8tPiG8-41">
          <mxGeometry x="20" width="100" height="70" as="geometry" />
        </mxCell>
        <mxCell id="vDldoN2Uw_cuYA8tPiG8-40" value="&lt;b&gt;&lt;font color=&quot;#ff8000&quot;&gt;Ventilation Bypass&lt;br&gt;Offen/Geschlossen&lt;/font&gt;&lt;br&gt;&lt;/b&gt;" style="text;html=1;strokeColor=none;fillColor=none;align=center;verticalAlign=middle;whiteSpace=wrap;rounded=0;" vertex="1" parent="vDldoN2Uw_cuYA8tPiG8-41">
          <mxGeometry y="70" width="140" height="50" as="geometry" />
        </mxCell>
        <mxCell id="vDldoN2Uw_cuYA8tPiG8-47" value="" style="endArrow=none;dashed=1;html=1;rounded=0;" edge="1" parent="1">
          <mxGeometry width="50" height="50" relative="1" as="geometry">
            <mxPoint x="539.52" y="589" as="sourcePoint" />
            <mxPoint x="539.52" y="501" as="targetPoint" />
          </mxGeometry>
        </mxCell>
        <mxCell id="vDldoN2Uw_cuYA8tPiG8-48" value="Thermische&lt;br&gt;Solaranlage" style="text;html=1;strokeColor=none;fillColor=none;align=center;verticalAlign=middle;whiteSpace=wrap;rounded=0;" vertex="1" parent="1">
          <mxGeometry x="328" y="133" width="60" height="40" as="geometry" />
        </mxCell>
        <mxCell id="vDldoN2Uw_cuYA8tPiG8-50" value="" style="sketch=0;outlineConnect=0;fillColor=#0050ef;strokeColor=#001DBC;dashed=0;verticalLabelPosition=bottom;verticalAlign=top;align=center;html=1;fontSize=12;fontStyle=0;aspect=fixed;pointerEvents=1;shape=mxgraph.aws4.iot_thing_temperature_sensor;fontColor=#ffffff;" vertex="1" parent="1">
          <mxGeometry x="190" y="430" width="30" height="30" as="geometry" />
        </mxCell>
        <mxCell id="vDldoN2Uw_cuYA8tPiG8-51" value="" style="sketch=0;outlineConnect=0;fillColor=#0050ef;strokeColor=#001DBC;dashed=0;verticalLabelPosition=bottom;verticalAlign=top;align=center;html=1;fontSize=12;fontStyle=0;aspect=fixed;pointerEvents=1;shape=mxgraph.aws4.iot_thing_temperature_sensor;fontColor=#ffffff;" vertex="1" parent="1">
          <mxGeometry x="190" y="504" width="30" height="30" as="geometry" />
        </mxCell>
        <mxCell id="vDldoN2Uw_cuYA8tPiG8-57" value="Auzuzen&lt;br&gt;" style="sketch=0;outlineConnect=0;fillColor=#0050ef;strokeColor=#001DBC;dashed=0;verticalLabelPosition=bottom;verticalAlign=top;align=center;html=1;fontSize=12;fontStyle=0;aspect=fixed;pointerEvents=1;shape=mxgraph.aws4.iot_thing_temperature_sensor;fontColor=#ffffff;" vertex="1" parent="1">
          <mxGeometry x="540" y="465" width="30" height="30" as="geometry" />
        </mxCell>
        <mxCell id="vDldoN2Uw_cuYA8tPiG8-63" value="" style="group" vertex="1" connectable="0" parent="1">
          <mxGeometry x="124" y="257" width="60" height="54" as="geometry" />
        </mxCell>
        <mxCell id="vDldoN2Uw_cuYA8tPiG8-53" value="Auzuzen&lt;br&gt;" style="sketch=0;outlineConnect=0;fillColor=#0050ef;strokeColor=#001DBC;dashed=0;verticalLabelPosition=bottom;verticalAlign=top;align=center;html=1;fontSize=12;fontStyle=0;aspect=fixed;pointerEvents=1;shape=mxgraph.aws4.iot_thing_temperature_sensor;fontColor=#ffffff;" vertex="1" parent="vDldoN2Uw_cuYA8tPiG8-63">
          <mxGeometry x="16" width="30" height="30" as="geometry" />
        </mxCell>
        <mxCell id="vDldoN2Uw_cuYA8tPiG8-61" value="&lt;font color=&quot;#3333ff&quot;&gt;Outdoor&lt;/font&gt;" style="text;html=1;strokeColor=none;fillColor=none;align=center;verticalAlign=middle;whiteSpace=wrap;rounded=0;" vertex="1" parent="vDldoN2Uw_cuYA8tPiG8-63">
          <mxGeometry y="24" width="60" height="30" as="geometry" />
        </mxCell>
        <mxCell id="vDldoN2Uw_cuYA8tPiG8-64" value="" style="group" vertex="1" connectable="0" parent="1">
          <mxGeometry x="179" y="257" width="50" height="54" as="geometry" />
        </mxCell>
        <mxCell id="vDldoN2Uw_cuYA8tPiG8-56" value="" style="sketch=0;outlineConnect=0;fillColor=#0050ef;strokeColor=#001DBC;dashed=0;verticalLabelPosition=bottom;verticalAlign=top;align=center;html=1;fontSize=12;fontStyle=0;aspect=fixed;pointerEvents=1;shape=mxgraph.aws4.iot_thing_temperature_sensor;fontColor=#ffffff;" vertex="1" parent="vDldoN2Uw_cuYA8tPiG8-64">
          <mxGeometry x="11" width="30" height="30" as="geometry" />
        </mxCell>
        <mxCell id="vDldoN2Uw_cuYA8tPiG8-62" value="&lt;font color=&quot;#3333ff&quot;&gt;Room&lt;/font&gt;" style="text;html=1;strokeColor=none;fillColor=none;align=center;verticalAlign=middle;whiteSpace=wrap;rounded=0;" vertex="1" parent="vDldoN2Uw_cuYA8tPiG8-64">
          <mxGeometry y="24" width="50" height="30" as="geometry" />
        </mxCell>
        <mxCell id="vDldoN2Uw_cuYA8tPiG8-65" value="" style="group" vertex="1" connectable="0" parent="1">
          <mxGeometry x="130" y="119" width="125" height="31" as="geometry" />
        </mxCell>
        <mxCell id="vDldoN2Uw_cuYA8tPiG8-49" value="" style="sketch=0;outlineConnect=0;fillColor=#0050ef;strokeColor=#001DBC;dashed=0;verticalLabelPosition=bottom;verticalAlign=top;align=center;html=1;fontSize=12;fontStyle=0;aspect=fixed;pointerEvents=1;shape=mxgraph.aws4.iot_thing_temperature_sensor;fontColor=#ffffff;" vertex="1" parent="vDldoN2Uw_cuYA8tPiG8-65">
          <mxGeometry x="95" y="1" width="30" height="30" as="geometry" />
        </mxCell>
        <mxCell id="vDldoN2Uw_cuYA8tPiG8-60" value="&lt;font color=&quot;#3333ff&quot;&gt;Solar Collector /&lt;br&gt;SOLAR_KVLF&lt;br&gt;&lt;/font&gt;" style="text;html=1;strokeColor=none;fillColor=none;align=center;verticalAlign=middle;whiteSpace=wrap;rounded=0;" vertex="1" parent="vDldoN2Uw_cuYA8tPiG8-65">
          <mxGeometry width="90" height="30" as="geometry" />
        </mxCell>
        <mxCell id="vDldoN2Uw_cuYA8tPiG8-66" value="" style="group" vertex="1" connectable="0" parent="1">
          <mxGeometry x="595" y="441" width="80" height="54" as="geometry" />
        </mxCell>
        <mxCell id="vDldoN2Uw_cuYA8tPiG8-58" value="Auzuzen&lt;br&gt;" style="sketch=0;outlineConnect=0;fillColor=#0050ef;strokeColor=#001DBC;dashed=0;verticalLabelPosition=bottom;verticalAlign=top;align=center;html=1;fontSize=12;fontStyle=0;aspect=fixed;pointerEvents=1;shape=mxgraph.aws4.iot_thing_temperature_sensor;fontColor=#ffffff;" vertex="1" parent="vDldoN2Uw_cuYA8tPiG8-66">
          <mxGeometry x="5" y="24" width="30" height="30" as="geometry" />
        </mxCell>
        <mxCell id="vDldoN2Uw_cuYA8tPiG8-59" value="&lt;font color=&quot;#3333ff&quot;&gt;Outgoing Air&lt;/font&gt;" style="text;html=1;strokeColor=none;fillColor=none;align=center;verticalAlign=middle;whiteSpace=wrap;rounded=0;" vertex="1" parent="vDldoN2Uw_cuYA8tPiG8-66">
          <mxGeometry width="80" height="30" as="geometry" />
        </mxCell>
        <mxCell id="vDldoN2Uw_cuYA8tPiG8-67" value="&lt;font color=&quot;#3333ff&quot;&gt;Mixer&lt;/font&gt;" style="text;html=1;strokeColor=none;fillColor=none;align=center;verticalAlign=middle;whiteSpace=wrap;rounded=0;" vertex="1" parent="1">
          <mxGeometry x="423" y="323" width="60" height="30" as="geometry" />
        </mxCell>
        <mxCell id="vDldoN2Uw_cuYA8tPiG8-69" value="" style="group" vertex="1" connectable="0" parent="1">
          <mxGeometry x="429" y="434" width="100" height="52" as="geometry" />
        </mxCell>
        <mxCell id="vDldoN2Uw_cuYA8tPiG8-55" value="" style="sketch=0;outlineConnect=0;fillColor=#0050ef;strokeColor=#001DBC;dashed=0;verticalLabelPosition=bottom;verticalAlign=top;align=center;html=1;fontSize=12;fontStyle=0;aspect=fixed;pointerEvents=1;shape=mxgraph.aws4.iot_thing_temperature_sensor;fontColor=#ffffff;" vertex="1" parent="vDldoN2Uw_cuYA8tPiG8-69">
          <mxGeometry x="34" y="22" width="30" height="30" as="geometry" />
        </mxCell>
        <mxCell id="vDldoN2Uw_cuYA8tPiG8-68" value="&lt;font color=&quot;#3333ff&quot;&gt;Wärmeerzeuger&lt;/font&gt;" style="text;html=1;strokeColor=none;fillColor=none;align=center;verticalAlign=middle;whiteSpace=wrap;rounded=0;" vertex="1" parent="vDldoN2Uw_cuYA8tPiG8-69">
          <mxGeometry width="100" height="30" as="geometry" />
        </mxCell>
        <mxCell id="vDldoN2Uw_cuYA8tPiG8-73" value="" style="sketch=0;outlineConnect=0;fillColor=#0050ef;strokeColor=#001DBC;dashed=0;verticalLabelPosition=bottom;verticalAlign=top;align=center;html=1;fontSize=12;fontStyle=0;aspect=fixed;pointerEvents=1;shape=mxgraph.aws4.iot_thing_temperature_sensor;fontColor=#ffffff;" vertex="1" parent="1">
          <mxGeometry x="190" y="468" width="30" height="30" as="geometry" />
        </mxCell>
        <mxCell id="vDldoN2Uw_cuYA8tPiG8-74" value="" style="sketch=0;outlineConnect=0;fillColor=#0050ef;strokeColor=#001DBC;dashed=0;verticalLabelPosition=bottom;verticalAlign=top;align=center;html=1;fontSize=12;fontStyle=0;aspect=fixed;pointerEvents=1;shape=mxgraph.aws4.iot_thing_temperature_sensor;fontColor=#ffffff;" vertex="1" parent="1">
          <mxGeometry x="255" y="430" width="30" height="30" as="geometry" />
        </mxCell>
        <mxCell id="vDldoN2Uw_cuYA8tPiG8-75" value="&lt;font color=&quot;#3333ff&quot;&gt;Buffer 1&lt;/font&gt;" style="text;html=1;strokeColor=none;fillColor=none;align=center;verticalAlign=middle;whiteSpace=wrap;rounded=0;" vertex="1" parent="1">
          <mxGeometry x="107" y="468" width="60" height="30" as="geometry" />
        </mxCell>
        <mxCell id="vDldoN2Uw_cuYA8tPiG8-76" value="&lt;font color=&quot;#3333ff&quot;&gt;Buffer 2&lt;/font&gt;" style="text;html=1;strokeColor=none;fillColor=none;align=center;verticalAlign=middle;whiteSpace=wrap;rounded=0;" vertex="1" parent="1">
          <mxGeometry x="107" y="430" width="60" height="34" as="geometry" />
        </mxCell>
        <mxCell id="vDldoN2Uw_cuYA8tPiG8-77" value="&lt;font color=&quot;#3333ff&quot;&gt;Buffer 3 / &lt;br&gt;SOLAR_SLVF&lt;/font&gt;" style="text;html=1;strokeColor=none;fillColor=none;align=center;verticalAlign=middle;whiteSpace=wrap;rounded=0;" vertex="1" parent="1">
          <mxGeometry x="92.5" y="504" width="89" height="30" as="geometry" />
        </mxCell>
        <mxCell id="vDldoN2Uw_cuYA8tPiG8-78" value="&lt;font color=&quot;#3333ff&quot;&gt;Warmwasser&lt;/font&gt;" style="text;html=1;strokeColor=none;fillColor=none;align=center;verticalAlign=middle;whiteSpace=wrap;rounded=0;" vertex="1" parent="1">
          <mxGeometry x="255" y="404" width="84" height="30" as="geometry" />
        </mxCell>
        <mxCell id="vDldoN2Uw_cuYA8tPiG8-83" value="" style="group" vertex="1" connectable="0" parent="1">
          <mxGeometry x="600" y="550" width="90" height="54" as="geometry" />
        </mxCell>
        <mxCell id="vDldoN2Uw_cuYA8tPiG8-54" value="" style="sketch=0;outlineConnect=0;fillColor=#0050ef;strokeColor=#001DBC;dashed=0;verticalLabelPosition=bottom;verticalAlign=top;align=center;html=1;fontSize=12;fontStyle=0;aspect=fixed;pointerEvents=1;shape=mxgraph.aws4.iot_thing_temperature_sensor;fontColor=#ffffff;" vertex="1" parent="vDldoN2Uw_cuYA8tPiG8-83">
          <mxGeometry width="30" height="30" as="geometry" />
        </mxCell>
        <mxCell id="vDldoN2Uw_cuYA8tPiG8-72" value="&lt;font color=&quot;#3333ff&quot;&gt;Ingoing Air == Room 2&lt;/font&gt;" style="text;html=1;strokeColor=none;fillColor=none;align=center;verticalAlign=middle;whiteSpace=wrap;rounded=0;" vertex="1" parent="vDldoN2Uw_cuYA8tPiG8-83">
          <mxGeometry x="-1" y="31" width="87" height="30" as="geometry" />
        </mxCell>
      </root>
    </mxGraphModel>
  </diagram>
</mxfile>
